<?xml version="1.0" encoding="utf-8"?>
<!-- Generator: Adobe Illustrator 27.9.0, SVG Export Plug-In . SVG Version: 6.00 Build 0)  -->
<svg version="1.1" id="Capa_1" xmlns="http://www.w3.org/2000/svg" xmlns:xlink="http://www.w3.org/1999/xlink" x="0px" y="0px"
	 viewBox="0 0 32 32" style="enable-background:new 0 0 32 32;" xml:space="preserve">
<style type="text/css">
	.st0{fill:none;stroke:#4089e8;stroke-width:1.073;stroke-miterlimit:10;}
	.st1{fill:#4089e8;}
	.st2{fill:#4089e8;stroke:#ffffff;stroke-width:0.2069;stroke-miterlimit:10;}
	.st3{fill:#ffffff;}
</style>
<g>
	<circle class="st0" cx="16" cy="16" r="12.79"/>
	<g>
		<g>
			<g>
				<path class="st1" d="M15.04,16.9c1.38,0,2.76-0.01,4.13,0c1.19,0.01,1.7,0.56,1.73,1.76c0.03,1.36-0.53,2.41-1.7,3.04
					c-2.76,1.48-5.57,1.51-8.34,0.02c-1.19-0.64-1.79-1.72-1.74-3.11c0.04-1.14,0.55-1.7,1.69-1.71
					C12.22,16.89,13.63,16.9,15.04,16.9z"/>
				<path class="st1" d="M15,15.43c-2.02,0-3.67-1.66-3.67-3.68c0-2.02,1.66-3.67,3.68-3.67c2.02,0,3.67,1.66,3.67,3.68
					C18.68,13.78,17.02,15.43,15,15.43z"/>
			</g>
			<circle class="st2" cx="20.25" cy="21.29" r="2.63"/>
			<g>
				<path class="st3" d="M21.68,21.52h-2.97c-0.07,0-0.13-0.04-0.14-0.11l0,0c-0.01-0.04-0.02-0.08-0.02-0.13
					c0-0.09,0.02-0.15,0.07-0.19c0.05-0.04,0.11-0.06,0.19-0.06h2.96c0.07,0,0.12,0.04,0.14,0.11l0,0c0.01,0.04,0.02,0.08,0.02,0.13
					c0,0.08-0.02,0.15-0.07,0.19C21.83,21.5,21.76,21.52,21.68,21.52z M20.54,19.84v3.05c0,0.07-0.05,0.13-0.11,0.15l0,0
					c-0.04,0.01-0.09,0.02-0.14,0.02c-0.1,0-0.18-0.02-0.22-0.07c-0.05-0.05-0.07-0.12-0.07-0.24V19.7c0-0.07,0.05-0.13,0.11-0.15
					c0,0,0.01,0,0.01,0c0.04-0.01,0.1-0.02,0.16-0.02c0.1,0,0.17,0.02,0.21,0.07C20.51,19.65,20.54,19.72,20.54,19.84z"/>
			</g>
		</g>
	</g>
</g>
</svg>
