<?xml version="1.0" encoding="utf-8"?>
<!-- Generator: Adobe Illustrator 27.9.0, SVG Export Plug-In . SVG Version: 6.00 Build 0)  -->
<svg version="1.1" id="Capa_1" xmlns="http://www.w3.org/2000/svg" xmlns:xlink="http://www.w3.org/1999/xlink" x="0px" y="0px"
	 viewBox="0 0 32 32" style="enable-background:new 0 0 32 32;" xml:space="preserve">
<style type="text/css">
	.st0{fill:none;stroke:#0055FF;stroke-width:1.073;stroke-miterlimit:10;}
	.st1{fill:#0055FF;}
	.st2{fill:#0055FF;stroke:#FFFFFF;stroke-width:0.2069;stroke-miterlimit:10;}
	.st3{fill:#FFFFFF;}
	.st4{fill:none;stroke:#0055FF;stroke-width:1.2437;stroke-miterlimit:10;}
	.st5{fill:#0055FF;stroke:#1D1D1B;stroke-width:1.2437;stroke-miterlimit:10;}
	.st6{fill:#0055FF;stroke:#FFFFFF;stroke-width:0.3066;stroke-miterlimit:10;}
</style>
<g>
	<circle class="st0" cx="-131.88" cy="-25.47" r="12.79"/>
	<g>
		<g>
			<g>
				<path class="st1" d="M-132.85-24.56c1.38,0,2.76-0.01,4.13,0c1.19,0.01,1.7,0.56,1.73,1.76c0.03,1.36-0.53,2.41-1.7,3.04
					c-2.76,1.48-5.57,1.51-8.34,0.02c-1.19-0.64-1.79-1.72-1.74-3.11c0.04-1.14,0.55-1.7,1.69-1.71
					C-135.66-24.58-134.25-24.56-132.85-24.56z"/>
				<path class="st1" d="M-132.88-26.04c-2.02,0-3.67-1.66-3.67-3.68c0-2.02,1.66-3.67,3.68-3.67c2.02,0,3.67,1.66,3.67,3.68
					C-129.2-27.69-130.86-26.04-132.88-26.04z"/>
			</g>
			<circle class="st2" cx="-127.63" cy="-20.18" r="2.63"/>
			<g>
				<path class="st3" d="M-126.2-19.94h-2.97c-0.07,0-0.13-0.04-0.14-0.11l0,0c-0.01-0.04-0.02-0.08-0.02-0.13
					c0-0.09,0.02-0.15,0.07-0.19c0.05-0.04,0.11-0.06,0.19-0.06h2.96c0.07,0,0.12,0.04,0.14,0.11l0,0c0.01,0.04,0.02,0.08,0.02,0.13
					c0,0.08-0.02,0.15-0.07,0.19C-126.05-19.96-126.12-19.94-126.2-19.94z M-127.34-21.63v3.05c0,0.07-0.05,0.13-0.11,0.15l0,0
					c-0.04,0.01-0.09,0.02-0.14,0.02c-0.1,0-0.18-0.02-0.22-0.07c-0.05-0.05-0.07-0.12-0.07-0.24v-3.05c0-0.07,0.05-0.13,0.11-0.15
					c0,0,0.01,0,0.01,0c0.04-0.01,0.1-0.02,0.16-0.02c0.1,0,0.17,0.02,0.21,0.07C-127.37-21.82-127.34-21.74-127.34-21.63z"/>
			</g>
		</g>
	</g>
</g>
<g>
	<g>
		<path class="st4" d="M-85.77,28.46H-99.5c-0.45,0-0.82-0.37-0.82-0.82V10.97c0-0.45,0.37-0.82,0.82-0.82h13.74
			c0.45,0,0.82,0.37,0.82,0.82v16.67C-84.95,28.09-85.32,28.46-85.77,28.46z"/>
	</g>
	<path class="st5" d="M-82.65,30.48h-13.74c-0.45,0-0.82-0.37-0.82-0.82V13c0-0.45,0.37-0.82,0.82-0.82h13.74
		c0.45,0,0.82,0.37,0.82,0.82v16.67C-81.84,30.12-82.2,30.48-82.65,30.48z"/>
	<g>
		<circle class="st3" cx="-90" cy="21.71" r="4.01"/>
		<g>
			<path d="M-92.55,21c-0.01-0.34,0.21-0.66,0.52-0.78c0.35-0.13,0.73-0.04,0.94,0.25c0.31,0.42,0.6,0.85,0.9,1.27
				c0.02,0.02,0.03,0.05,0.05,0.07c0.11,0.14,0.27,0.15,0.38,0.01c0.24-0.3,0.48-0.59,0.72-0.89c1.02-1.26,2.04-2.52,3.07-3.78
				c0.18-0.22,0.43-0.27,0.67-0.15c0.21,0.11,0.32,0.36,0.26,0.6c-0.02,0.07-0.05,0.12-0.09,0.18c-1.48,2.11-2.95,4.23-4.43,6.34
				c-0.26,0.37-0.72,0.36-0.98,0c-0.61-0.87-1.22-1.74-1.83-2.61C-92.48,21.36-92.55,21.19-92.55,21z"/>
		</g>
	</g>
</g>
<g>
	<g>
		<g>
			<path class="st4" d="M-125.01,28.46h-13.74c-0.45,0-0.82-0.37-0.82-0.82V10.97c0-0.45,0.37-0.82,0.82-0.82h13.74
				c0.45,0,0.82,0.37,0.82,0.82v16.67C-124.2,28.09-124.56,28.46-125.01,28.46z"/>
		</g>
		<path class="st5" d="M-121.9,30.48h-13.74c-0.45,0-0.82-0.37-0.82-0.82V13c0-0.45,0.37-0.82,0.82-0.82h13.74
			c0.45,0,0.82,0.37,0.82,0.82v16.67C-121.08,30.12-121.45,30.48-121.9,30.48z"/>
	</g>
	<g>
		<path class="st3" d="M-126.06,18.99h-7.59c-0.23,0-0.41-0.18-0.41-0.41v-0.93c0-0.23,0.18-0.41,0.41-0.41h7.59
			c0.23,0,0.41,0.18,0.41,0.41v0.93C-125.65,18.81-125.83,18.99-126.06,18.99z"/>
		<path class="st3" d="M-123.66,18.99h-1.38c-0.1,0-0.19-0.08-0.19-0.19v-1.38c0-0.1,0.08-0.19,0.19-0.19h1.38
			c0.1,0,0.19,0.08,0.19,0.19v1.38C-123.47,18.91-123.56,18.99-123.66,18.99z"/>
		<path class="st3" d="M-123.66,22.21h-1.38c-0.1,0-0.19-0.08-0.19-0.19v-1.38c0-0.1,0.08-0.19,0.19-0.19h1.38
			c0.1,0,0.19,0.08,0.19,0.19v1.38C-123.47,22.12-123.56,22.21-123.66,22.21z"/>
		<path class="st3" d="M-123.66,25.43h-1.38c-0.1,0-0.19-0.08-0.19-0.19v-1.38c0-0.1,0.08-0.19,0.19-0.19h1.38
			c0.1,0,0.19,0.08,0.19,0.19v1.38C-123.47,25.34-123.56,25.43-123.66,25.43z"/>
		<path class="st3" d="M-126.06,22.21h-7.59c-0.23,0-0.41-0.18-0.41-0.41v-0.93c0-0.23,0.18-0.41,0.41-0.41h7.59
			c0.23,0,0.41,0.18,0.41,0.41v0.93C-125.65,22.02-125.83,22.21-126.06,22.21z"/>
		<path class="st3" d="M-126.06,25.43h-7.59c-0.23,0-0.41-0.18-0.41-0.41v-0.93c0-0.23,0.18-0.41,0.41-0.41h7.59
			c0.23,0,0.41,0.18,0.41,0.41v0.93C-125.65,25.24-125.83,25.43-126.06,25.43z"/>
	</g>
	<g>
		<path d="M-125.04,17.72c0-0.1,0.06-0.19,0.15-0.23c0.1-0.04,0.21-0.01,0.28,0.07c0.09,0.12,0.18,0.25,0.26,0.37
			c0,0.01,0.01,0.01,0.01,0.02c0.03,0.04,0.08,0.04,0.11,0c0.07-0.09,0.14-0.17,0.21-0.26c0.3-0.37,0.6-0.74,0.9-1.11
			c0.05-0.06,0.12-0.08,0.19-0.04c0.06,0.03,0.09,0.1,0.08,0.17c0,0.02-0.01,0.04-0.03,0.05c-0.43,0.62-0.86,1.24-1.3,1.85
			c-0.07,0.11-0.21,0.11-0.29,0c-0.18-0.25-0.36-0.51-0.53-0.76C-125.02,17.82-125.04,17.77-125.04,17.72z"/>
	</g>
</g>
<g>
	<g>
		<path class="st1" d="M14.26,17.95c2.04,0,4.09-0.02,6.13,0c1.76,0.02,2.52,0.84,2.56,2.62c0.05,2.01-0.79,3.58-2.52,4.5
			c-4.09,2.19-8.26,2.23-12.35,0.03c-1.77-0.95-2.65-2.54-2.58-4.61c0.06-1.7,0.81-2.52,2.5-2.54
			C10.09,17.93,12.18,17.95,14.26,17.95z"/>
		<path class="st1" d="M14.21,15.77c-3,0-5.44-2.46-5.43-5.46c0.01-3,2.45-5.44,5.45-5.43c3,0.01,5.44,2.46,5.43,5.45
			C19.67,13.33,17.21,15.77,14.21,15.77z"/>
	</g>
	<circle class="st6" cx="22.6" cy="23.22" r="3.9"/>
	<g>
		<path class="st3" d="M23.16,21.71l0.93,0.93l-2.35,2.35l-0.93-0.93L23.16,21.71z M24.79,21.48l-0.41-0.41
			c-0.16-0.16-0.42-0.16-0.58,0l-0.4,0.4l0.93,0.93l0.46-0.46C24.92,21.81,24.92,21.61,24.79,21.48z M20.32,25.37
			c-0.02,0.08,0.05,0.14,0.13,0.13l1.04-0.25l-0.93-0.93L20.32,25.37z"/>
	</g>
</g>
</svg>
